:version 1.10
:name ASF
:units
  mass 1
  length 1
  angle deg
:documentation
  ASF file generated by Kaydara
:root
  axis xyz
  order  tx ty tz rx ry rz
  position 0 0 0
  orientation 0 0 0
:bonedata
  begin
    id 1
    name RightUpLegDummy
    direction -0.718183 -0.695806 0.00816078
    length 4.904
    axis 0 0 0 xyz
  end
  begin
    id 2
    name RightUpLeg
    direction 3.53373e-006 -0.995788 0.0916898
    length 17.4976
    axis -3.49089 -0.000906625 0.000286804 xyz
    dof rx ry rz
  end
  begin
    id 3
    name RightLeg
    direction 0.00371092 -0.995096 -0.0988419
    length 16.5821
    axis 3.68512 0.0193738 -0.131023 xyz
    dof rx ry rz
  end
  begin
    id 4
    name RightFoot
    direction 0.00079151 -0.46099 0.887405
    length 3.77069
    axis 4.81691e-005 -0.120479 -0.188788 xyz
    dof rx ry rz
  end
  begin
    id 5
    name RightToes
    direction 0 0 0
    length 0
    axis 0 0 0 xyz
    dof rx ry rz
  end
  begin
    id 6
    name SpineDummy
    direction 8.3039e-015 1 4.57515e-016
    length 4.6813
    axis 0 0 0 xyz
  end
  begin
    id 7
    name Spine
    direction -3.15643e-008 0.999988 0.00495137
    length 10.1015
    axis -0.001389 0.000121418 2.40972e-006 xyz
    dof rx ry rz
  end
  begin
    id 8
    name Spine1
    direction 0 0 0
    length 0
    axis -0.001389 0.000121451 1.30017e-006 xyz
    dof rx ry rz
  end
  begin
    id 9
    name HEadDummy
    direction -1.99912e-008 0.999999 0.00127422
    length 3.43865
    axis -0.001389 0.000121451 1.30017e-006 xyz
  end
  begin
    id 10
    name HEad
    direction 0 0 0
    length 0
    axis 0 0 0 xyz
    dof rx ry rz
  end
  begin
    id 11
    name LeftShoulder1Dummy
    direction 0.998891 -0.0402509 -0.0244456
    length 3.5433
    axis -0.001389 0.000121451 1.30017e-006 xyz
  end
  begin
    id 12
    name LeftShoulder1
    direction 0.99951 -0.000327763 0.0313091
    length 4.05031
    axis -0.001389 0.000121451 1.30017e-006 xyz
    dof rx ry rz
  end
  begin
    id 13
    name LeftArm
    direction 0.998561 -0.00100056 -0.0536182
    length 10.3537
    axis -23.1894 0.134784 0.967509 xyz
    dof rx ry rz
  end
  begin
    id 14
    name LeftForeArm
    direction 0.998903 0.00866432 0.046012
    length 8.70632
    axis -9.91835 -0.06569 -0.177794 xyz
    dof rx ry rz
  end
  begin
    id 15
    name LeftHand
    direction 0 0 0
    length 0
    axis 0 0 0 xyz
    dof rx ry rz
  end
  begin
    id 16
    name RightShoulderDummy
    direction -0.998891 -0.0402509 -0.0244414
    length 3.5433
    axis -0.001389 0.000121451 1.30017e-006 xyz
  end
  begin
    id 17
    name RightShoulder
    direction -0.99951 -0.000327807 0.0313133
    length 4.05031
    axis 0.215806 0.000203643 -0.0068026 xyz
    dof rx ry rz
  end
  begin
    id 18
    name RightArm
    direction -0.998573 -0.000999564 -0.053403
    length 10.3947
    axis -23.2009 -0.134239 -0.964101 xyz
    dof rx ry rz
  end
  begin
    id 19
    name RightForeArm
    direction -0.998898 0.00868028 0.0461306
    length 8.68355
    axis -9.92322 0.0658061 0.178868 xyz
    dof rx ry rz
  end
  begin
    id 20
    name RightHand
    direction 0 0 0
    length 0
    axis 0 0 0 xyz
    dof rx ry rz
  end
  begin
    id 21
    name LeftUpLegDummy
    direction 0.718183 -0.695806 0.00816078
    length 4.904
    axis 0 0 0 xyz
  end
  begin
    id 22
    name LeftUpLeg
    direction -6.81752e-006 -0.995793 0.0916337
    length 17.4976
    axis -3.48766 0.00143442 -0.000524262 xyz
    dof rx ry rz
  end
  begin
    id 23
    name LeftLeg
    direction -0.00601358 -0.995091 -0.0987824
    length 16.5821
    axis 3.68178 -0.00654042 -0.000285133 xyz
    dof rx ry rz
  end
  begin
    id 24
    name LeftFoot
    direction -0.00417578 -0.460984 0.887399
    length 3.77069
    axis 1.87233e-006 4.66016e-005 -8.6538e-006 xyz
    dof rx ry rz
  end
  begin
    id 25
    name LeftToes
    direction 0 0 0
    length 0
    axis 0 0 0 xyz
    dof rx ry rz
  end
:hierarchy
  begin
    root RightUpLegDummy SpineDummy LeftUpLegDummy
    RightUpLegDummy RightUpLeg
    RightUpLeg RightLeg
    RightLeg RightFoot
    RightFoot RightToes
    SpineDummy Spine
    Spine Spine1
    Spine1 HEadDummy LeftShoulder1Dummy RightShoulderDummy
    HEadDummy HEad
    LeftShoulder1Dummy LeftShoulder1
    LeftShoulder1 LeftArm
    LeftArm LeftForeArm
    LeftForeArm LeftHand
    RightShoulderDummy RightShoulder
    RightShoulder RightArm
    RightArm RightForeArm
    RightForeArm RightHand
    LeftUpLegDummy LeftUpLeg
    LeftUpLeg LeftLeg
    LeftLeg LeftFoot
    LeftFoot LeftToes
  end

:SAMPLES-PER-SECOND 30
:FULLY-SPECIFIED
:DEGREES
32
root  73.4659 39.2962 3.43159 -164.048 -81.9577 157.272
RightUpLeg  -14.9102 -10.642 -9.99182
RightLeg  40.4844 -5.58178 -5.35569
RightFoot  -4.17803 -0.45041 6.73081
RightToes  0.000481921 0.542163 -0.142578
Spine  11.494 0.139979 -3.63083
Spine1  8.47069 -0.155725 -1.14469
HEad  -7.51815 5.72399 -5.70197
LeftShoulder1  7.12021 -11.4218 -41.3674
LeftArm  -16.9494 -2.61384 -25.7868
LeftForeArm  24.8046 -3.69378 -3.24547
LeftHand  -0.25398 0.0180481 5.50724
RightShoulder  3.76655 7.11486 29.4983
RightArm  -7.48188 -21.2193 40.9917
RightForeArm  1.49654 23.8646 5.06305
RightHand  -1.21764 3.93575 -15.4223
LeftUpLeg  6.27083 11.984 0.342422
LeftLeg  15.1853 13.8439 -0.463598
LeftFoot  -16.1587 -0.0117154 -2.58256
LeftToes  1.06245e-005 4.65868e-005 -8.65515e-006
33
root  73.172 39.3478 3.4147 -165.647 -83.1977 159.102
RightUpLeg  -17.6047 -12.503 -8.37919
RightLeg  41.7903 -4.67365 -4.75354
RightFoot  -4.42082 -0.448569 6.91091
RightToes  0.000481921 0.542163 -0.142578
Spine  13.6209 -0.69736 -4.02881
Spine1  7.17273 -1.34612 -0.310213
HEad  -10.2103 6.1875 -5.96597
LeftShoulder1  7.51674 -11.9223 -42.3242
LeftArm  -15.6843 -4.42871 -29.886
LeftForeArm  30.2464 -8.81827 -3.99562
LeftHand  -0.25398 0.0180481 5.50724
RightShoulder  3.78623 7.10645 29.715
RightArm  -3.99727 -24.5752 46.3302
RightForeArm  1.60614 21.7838 4.82941
RightHand  -0.999825 2.39146 -15.049
LeftUpLeg  6.5493 11.1599 0.794495
LeftLeg  14.8942 13.5298 -0.262432
LeftFoot  -16.1759 -0.0254764 -2.90172
LeftToes  1.06245e-005 4.65868e-005 -8.65515e-006
34
root  72.7376 39.4323 3.38093 -170.888 -84.2672 165.213
RightUpLeg  -20.0607 -14.1704 -6.21612
RightLeg  40.2856 -4.63429 -4.47081
RightFoot  -4.4107 -0.469246 7.24223
RightToes  0.000481921 0.542163 -0.142578
Spine  14.7296 -1.50952 -4.1872
Spine1  5.71042 -2.54597 1.05331
HEad  -12.0312 6.67654 -5.83523
LeftShoulder1  7.78227 -12.1731 -43.1692
LeftArm  -11.2072 -5.96118 -34.1783
LeftForeArm  29.0099 -14.2235 -4.55271
LeftHand  -0.25398 0.0180481 5.50724
RightShoulder  3.87388 7.37461 29.642
RightArm  1.31242 -28.9874 49.2066
RightForeArm  2.68846 22.0739 4.89775
RightHand  -0.611984 0.366174 -12.3044
LeftUpLeg  6.57522 9.76593 1.36692
LeftLeg  14.1543 13.9175 -0.0768421
LeftFoot  -16.2763 -0.0427891 -3.25392
LeftToes  1.06245e-005 4.65868e-005 -8.65515e-006
35
root  72.1869 39.4905 3.31009 -179.345 -84.7653 174.837
RightUpLeg  -22.1742 -14.9607 -3.86153
RightLeg  36.8837 -5.22205 -4.44953
RightFoot  -4.45533 -0.467459 7.25366
RightToes  0.000481921 0.542163 -0.142578
Spine  15.2549 -1.95304 -4.46053
Spine1  4.27109 -3.44069 2.97429
HEad  -12.9898 7.21988 -5.19982
LeftShoulder1  8.06585 -12.5032 -43.8575
LeftArm  -1.97193 -7.5472 -38.1528
LeftForeArm  25.3936 -20.0264 -4.20142
LeftHand  -0.25398 0.0180481 5.50724
RightShoulder  3.94925 7.70539 29.255
RightArm  5.92044 -34.4084 49.9044
RightForeArm  3.59921 25.374 5.23067
RightHand  -0.344402 -0.952537 -8.9703
LeftUpLeg  6.60328 8.81479 2.23298
LeftLeg  13.3548 14.029 -0.150019
LeftFoot  -16.7677 -0.0911546 -4.03449
LeftToes  1.06245e-005 4.65868e-005 -8.65515e-006
36
root  71.5408 39.4917 3.20259 172.789 -84.8656 -176.171
RightUpLeg  -23.5554 -15.0311 -1.83653
RightLeg  32.254 -5.38945 -3.90643
RightFoot  -4.82662 -0.44314 7.19949
RightToes  0.000481921 0.542163 -0.142578
Spine  15.5357 -2.17011 -4.94173
Spine1  3.15306 -4.09624 4.93332
HEad  -13.4645 7.72312 -3.9544
LeftShoulder1  8.35661 -13.0075 -44.0638
LeftArm  5.63777 -9.06579 -41.474
LeftForeArm  28.2577 -26.4287 -4.05213
LeftHand  -0.25398 0.0180481 5.50724
RightShoulder  3.92722 7.77263 28.8398
RightArm  7.92234 -39.5143 49.1667
RightForeArm  2.51246 29.7164 6.33426
RightHand  -0.28627 -1.6166 -8.56982
LeftUpLeg  6.79095 8.69073 3.29191
LeftLeg  12.8303 13.5771 -0.474526
LeftFoot  -17.5247 -0.160205 -4.91225
LeftToes  1.06245e-005 4.65868e-005 -8.65515e-006
37
root  70.8025 39.4248 3.08365 168.503 -84.806 -170.988
RightUpLeg  -24.1866 -14.8097 -0.493006
RightLeg  27.3085 -4.47742 -2.74016
RightFoot  -4.94022 -0.44621 7.36497
RightToes  0.000481921 0.542163 -0.142578
Spine  15.4778 -2.45043 -5.37004
Spine1  2.79532 -4.68703 6.26684
HEad  -13.9263 8.05435 -2.0784
LeftShoulder1  8.52423 -13.4473 -43.7661
LeftArm  8.92691 -10.6247 -44.2658
LeftForeArm  37.7343 -33.0759 -5.18069
LeftHand  -0.25398 0.0180481 5.50724
RightShoulder  3.84758 7.65036 28.5001
RightArm  9.39011 -43.0113 47.9815
RightForeArm  -1.94925 33.1511 7.46446
RightHand  -0.30982 -2.34466 -11.3302
LeftUpLeg  7.27802 8.85337 4.0812
LeftLeg  12.562 13.2208 -0.731732
LeftFoot  -18.4678 -0.224923 -5.3915
LeftToes  1.06245e-005 4.65868e-005 -8.65515e-006
38
root  69.9682 39.2688 2.96247 168.764 -84.4942 -170.689
RightUpLeg  -24.556 -14.049 0.0738676
RightLeg  23.7687 -3.14336 -1.72407
RightFoot  -4.60024 -0.472585 7.48234
RightToes  0.000481921 0.542163 -0.142578
Spine  15.0566 -2.73487 -5.52951
Spine1  3.28587 -5.11424 6.72355
HEad  -14.6078 8.53021 0.284349
LeftShoulder1  8.56732 -13.7269 -43.2456
LeftArm  11.4387 -12.4182 -46.7624
LeftForeArm  46.118 -39.0167 -6.23851
LeftHand  -0.25398 0.0180481 5.50724
RightShoulder  3.82258 7.65264 28.263
RightArm  10.432 -44.7191 46.7197
RightForeArm  -6.02237 35.2977 8.2943
RightHand  -0.338438 -2.72664 -14.1235
LeftUpLeg  8.21594 8.86683 4.36505
LeftLeg  12.5146 13.1911 -0.764798
LeftFoot  -19.8733 -0.332802 -6.03628
LeftToes  1.06245e-005 4.65868e-005 -8.65515e-006
39
root  69.041 39.0141 2.82182 172.379 -83.8621 -174.156
RightUpLeg  -24.9214 -12.5627 -0.0502744
RightLeg  22.9852 -2.74076 -1.4892
RightFoot  -4.5158 -0.463951 7.25174
RightToes  0.000481921 0.542163 -0.142578
Spine  14.738 -2.78747 -5.46865
Spine1  3.9953 -5.18297 6.58059
HEad  -15.5507 9.20885 2.9213
LeftShoulder1  8.54962 -13.9569 -42.5461
LeftArm  13.6352 -14.2968 -49.1188
LeftForeArm  50.0766 -42.7625 -7.08724
LeftHand  -0.25398 0.0180481 5.50724
RightShoulder  3.89277 7.83529 28.3315
RightArm  10.5995 -45.066 45.2928
RightForeArm  -7.48002 36.434 8.71146
RightHand  -0.439966 -1.99499 -14.7511
LeftUpLeg  9.64526 9.15703 4.42631
LeftLeg  12.8915 13.0008 -0.728803
LeftFoot  -21.6854 -0.529115 -7.26889
LeftToes  1.06245e-005 4.65868e-005 -8.65515e-006
40
root  68.0219 38.6866 2.65209 175.952 -83.1998 -177.829
RightUpLeg  -25.1043 -11.4292 -0.347999
RightLeg  24.5733 -3.54448 -1.99231
RightFoot  -4.89649 -0.398276 6.47359
RightToes  0.000481921 0.542163 -0.142578
Spine  14.8614 -2.69138 -5.09626
Spine1  4.19218 -5.03068 6.32423
HEad  -16.8358 9.63587 5.18974
LeftShoulder1  8.45323 -14.0304 -41.8429
LeftArm  15.3275 -15.5662 -51.4643
LeftForeArm  48.1772 -43.5982 -7.46162
LeftHand  -0.25398 0.0180481 5.50724
RightShoulder  4.01215 8.05654 28.7178
RightArm  9.84322 -44.2646 43.9876
RightForeArm  -9.49177 36.1599 8.74023
RightHand  -0.622241 -0.46341 -14.6013
LeftUpLeg  11.282 10.3441 4.65695
LeftLeg  13.8401 12.3265 -0.491249
LeftFoot  -23.4062 -0.70925 -8.04749
LeftToes  1.06245e-005 4.65868e-005 -8.65515e-006
41
root  66.9027 38.3185 2.46134 175.55 -82.8553 -177.291
RightUpLeg  -25.2977 -11.5937 0.00233426
RightLeg  27.4352 -4.65987 -2.8488
RightFoot  -5.22416 -0.289037 4.76205
RightToes  0.000481921 0.542163 -0.142578
Spine  14.9512 -2.76059 -3.77478
Spine1  3.92085 -4.9446 6.25495
HEad  -18.4329 9.62641 6.24723
LeftShoulder1  8.38225 -13.8525 -41.9254
LeftArm  15.6302 -15.3322 -53.0622
LeftForeArm  41.9719 -42.1885 -7.39787
LeftHand  -0.25398 0.0180481 5.50724
RightShoulder  4.18605 8.33933 29.3715
RightArm  8.29895 -42.1981 43.1067
RightForeArm  -15.7966 33.8853 8.40215
RightHand  -0.854668 1.05215 -15.4642
LeftUpLeg  12.5082 12.4801 5.3323
LeftLeg  15.3568 10.668 0.609127
LeftFoot  -25.0453 -0.817816 -8.05286
LeftToes  1.06245e-005 4.65868e-005 -8.65515e-006
42
root  65.683 37.8821 2.23224 168.554 -82.7352 -169.729
RightUpLeg  -26.1134 -12.2962 1.40012
RightLeg  31.552 -5.4152 -3.82103
RightFoot  -5.94637 -0.136906 1.98127
RightToes  0.000481921 0.542163 -0.142578
Spine  14.5723 -3.03691 -1.28669
Spine1  3.65729 -5.02208 6.72667
HEad  -20.4667 9.73397 6.14969
LeftShoulder1  8.57885 -13.7274 -43.3027
LeftArm  13.9657 -13.1515 -52.5391
LeftForeArm  35.5001 -39.7114 -7.05108
LeftHand  -0.25398 0.0180481 5.50724
RightShoulder  4.49633 8.81198 30.549
RightArm  5.80295 -38.4929 42.0183
RightForeArm  -25.2882 29.7454 7.6713
RightHand  -1.25866 3.18646 -17.2094
LeftUpLeg  12.5585 13.7846 6.45039
LeftLeg  18.4594 8.45778 2.7578
LeftFoot  -27.0443 -1.16096 -9.51327
LeftToes  1.06245e-005 4.65868e-005 -8.65515e-006
43
root  64.3967 37.3174 1.92395 157.19 -82.2881 -157.934
RightUpLeg  -27.3105 -12.3993 3.42635
RightLeg  37.1755 -5.80771 -4.98072
RightFoot  -8.32233 -0.0327487 -1.01403
RightToes  0.000481921 0.542163 -0.142578
Spine  14.2755 -3.22769 1.432
Spine1  3.45041 -5.12262 7.94279
HEad  -23.02 10.3951 5.17013
LeftShoulder1  9.08468 -13.9853 -45.2749
LeftArm  11.2296 -9.36228 -49.3697
LeftForeArm  31.9977 -36.1845 -6.28784
LeftHand  -0.25398 0.0180481 5.50724
RightShoulder  4.95006 9.32836 32.6315
RightArm  1.21122 -32.6232 39.7448
RightForeArm  -33.641 24.3728 6.93641
RightHand  -1.91634 6.45182 -19.0253
LeftUpLeg  10.8295 11.0638 7.6725
LeftLeg  25.71 8.86705 5.05631
LeftFoot  -28.3952 -1.89127 -13.759
LeftToes  1.06245e-005 4.65868e-005 -8.65515e-006
44
root  63.119 36.7323 1.56227 147.237 -81.0985 -148.265
RightUpLeg  -27.4349 -12.0143 5.42804
RightLeg  42.4978 -5.84231 -5.99972
RightFoot  -11.8591 -0.0905247 -2.92515
RightToes  0.000481921 0.542163 -0.142578
Spine  14.7966 -3.20064 3.94781
Spine1  3.13058 -4.95361 9.25387
HEad  -25.8597 11.0595 2.99188
LeftShoulder1  9.60386 -14.4097 -46.7812
LeftArm  9.09616 -4.42607 -44.422
LeftForeArm  31.2136 -30.8244 -4.95151
LeftHand  -0.25398 0.0180481 5.50724
RightShoulder  5.37687 9.55737 35.2079
RightArm  -7.71303 -24.5345 36.69
RightForeArm  -38.8246 18.6286 7.34614
RightHand  -2.71518 9.40515 -21.4852
LeftUpLeg  7.64215 9.0362 9.79585
LeftLeg  37.4542 9.15062 7.85186
LeftFoot  -25.6311 -2.03116 -17.3852
LeftToes  1.06245e-005 4.65868e-005 -8.65515e-006
45
root  61.8812 36.3214 1.21664 143.749 -79.3489 -145.571
RightUpLeg  -25.9474 -11.6411 6.72522
RightLeg  45.8118 -5.25877 -6.09249
RightFoot  -15.0507 -0.206324 -3.30786
RightToes  0.000481921 0.542163 -0.142578
Spine  15.4913 -3.02418 6.66631
Spine1  2.96863 -4.15845 9.10265
HEad  -28.371 11.2264 -0.158587
LeftShoulder1  9.85517 -14.577 -47.5771
LeftArm  6.62428 1.59637 -38.7001
LeftForeArm  32.1686 -23.9912 -3.82746
LeftHand  -0.25398 0.0180481 5.50724
RightShoulder  5.60484 9.46971 37.1893
RightArm  -17.0173 -15.2587 34.4544
RightForeArm  -45.4445 14.4028 7.92855
RightHand  -3.59742 11.2578 -25.1463
LeftUpLeg  3.37251 8.98851 11.7327
LeftLeg  50.5224 8.61071 11.4602
LeftFoot  -17.2507 -0.759033 -15.4603
LeftToes  1.06245e-005 4.65868e-005 -8.65515e-006
46
root  60.6534 36.241 0.936264 146.025 -77.4557 -148.432
RightUpLeg  -23.3932 -11.0653 7.00618
RightLeg  46.6164 -4.34864 -5.25873
RightFoot  -17.319 -0.269509 -2.91615
RightToes  0.000481921 0.542163 -0.142578
Spine  15.2096 -2.65803 9.81472
Spine1  3.49178 -2.67068 7.01373
HEad  -29.9536 11.0652 -3.37331
LeftShoulder1  9.81066 -14.3655 -47.927
LeftArm  -1.07764 8.53012 -32.5028
LeftForeArm  36.5163 -16.9487 -4.50563
LeftHand  -0.25398 0.0180481 5.50724
RightShoulder  5.66038 9.33489 38.0429
RightArm  -20.2267 -6.33796 33.4895
RightForeArm  -53.5789 13.42 7.89011
RightHand  -4.1317 12.1328 -27.3798
LeftUpLeg  -1.23578 9.76278 12.33
LeftLeg  60.5989 6.99502 13.6941
LeftFoot  -8.56514 0.275255 -8.65294
LeftToes  1.06245e-005 4.65868e-005 -8.65515e-006
